<svg xmlns="http://www.w3.org/2000/svg" width="18.355" height="14.651" viewBox="0 0 18.355 14.651">
    <defs>
        <style>
            .cls-2{fill:#fff}
        </style>
    </defs>
    <g id="_4k-fullhd" opacity="0.296" transform="translate(0 -29.29)">
        <path id="Path_23" d="M17.627 29.29H.728a.728.728 0 0 0-.728.728v13.194a.728.728 0 0 0 .728.728h16.9a.728.728 0 0 0 .728-.728V30.018a.729.729 0 0 0-.729-.728zM3.577 39.2H2.134v.972h1.293v.3H2.134v1.186h-.316v-2.765h1.759v.3zM6.3 40.521a1.065 1.065 0 0 1-1.158 1.154 1.069 1.069 0 0 1-1.162-1.154v-1.628h.32v1.628a.781.781 0 0 0 .85.85.775.775 0 0 0 .842-.85v-1.628H6.3v1.628zm2.3 1.138H7.079v-2.766h.316v2.466h1.213zm2.043 0H9.122v-2.766h.316v2.466h1.213v.3zm2.925 0h-.7v-1.075h-1.141v1.075h-.7v-2.766h.7v1.138h1.146v-1.138h.7zm1.716 0H14.13v-1.593h.7V41.1h.5a.748.748 0 0 0 .739-.818.767.767 0 0 0-.771-.826H14.13v-.561h1.19a1.36 1.36 0 0 1 1.47 1.383 1.375 1.375 0 0 1-1.498 1.381zm1.616-4.234H1.457v-6.678H16.9z" class="cls-2"/>
        <path id="Path_24" d="M70.7 67.312h1.2v-1.129h.7v-.99h-.7v-1.1h-1.2v1.1h-1.09l1.525-3.013h-1.254l-1.62 3.131v.872H70.7z" class="cls-2" transform="translate(-63.944 -30.81)"/>
        <path id="Path_25" d="M147.943 66.051l.682-.755 1.356 2.016h1.562l-2.031-3.006 1.906-2.126h-1.51l-1.965 2.22v-2.22h-1.305v5.132h1.305z" class="cls-2" transform="translate(-137.365 -30.81)"/>
    </g>
</svg>
